<?xml version="1.0" encoding="UTF-8"?>
<svg xmlns="http://www.w3.org/2000/svg" xmlns:xlink="http://www.w3.org/1999/xlink" width="20pt" height="20pt" viewBox="0 0 20 20" version="1.1">
<g id="surface1">
<path style=" stroke:none;fill-rule:nonzero;fill:rgb(0%,0%,0%);fill-opacity:1;" d="M 4.398438 2 L 0.800781 2 C 0.582031 2 0.394531 2.078125 0.238281 2.238281 C 0.078125 2.394531 0 2.582031 0 2.800781 L 0 10.796875 C 0 11.011719 0.078125 11.199219 0.238281 11.359375 C 0.394531 11.515625 0.582031 11.59375 0.800781 11.59375 L 4.398438 11.59375 C 4.613281 11.59375 4.800781 11.515625 4.960938 11.359375 C 5.117188 11.199219 5.199219 11.011719 5.199219 10.796875 L 5.199219 2.800781 C 5.199219 2.582031 5.117188 2.394531 4.960938 2.238281 C 4.800781 2.078125 4.613281 2 4.398438 2 Z M 2.960938 4.960938 C 2.804688 5.117188 2.617188 5.199219 2.398438 5.199219 C 2.175781 5.199219 1.984375 5.117188 1.832031 4.960938 C 1.675781 4.800781 1.597656 4.613281 1.597656 4.398438 C 1.597656 4.171875 1.675781 3.984375 1.832031 3.828125 C 1.984375 3.675781 2.175781 3.597656 2.398438 3.597656 C 2.617188 3.597656 2.804688 3.675781 2.960938 3.828125 C 3.121094 3.984375 3.199219 4.171875 3.199219 4.398438 C 3.199219 4.613281 3.121094 4.800781 2.960938 4.960938 Z M 2.960938 4.960938 "/>
<path style=" stroke:none;fill-rule:nonzero;fill:rgb(0%,0%,0%);fill-opacity:1;" d="M 19.304688 8.933594 C 19.429688 8.566406 19.492188 8.25 19.492188 7.984375 C 19.515625 7.351562 19.335938 6.78125 18.953125 6.273438 C 19.09375 5.804688 19.09375 5.320312 18.953125 4.8125 C 18.828125 4.335938 18.605469 3.945312 18.277344 3.636719 C 18.355469 2.703125 18.148438 1.949219 17.667969 1.375 C 17.132812 0.742188 16.3125 0.417969 15.207031 0.398438 L 13.59375 0.398438 C 13.042969 0.398438 12.445312 0.464844 11.792969 0.59375 C 11.144531 0.722656 10.636719 0.84375 10.277344 0.957031 C 9.914062 1.070312 9.410156 1.234375 8.769531 1.449219 C 7.746094 1.808594 7.089844 1.992188 6.796875 2 C 6.578125 2.007812 6.394531 2.089844 6.234375 2.242188 C 6.074219 2.398438 5.996094 2.582031 5.996094 2.800781 L 5.996094 10.808594 C 5.996094 11.015625 6.070312 11.199219 6.222656 11.351562 C 6.371094 11.507812 6.550781 11.589844 6.757812 11.609375 C 6.957031 11.625 7.277344 11.871094 7.707031 12.34375 C 8.140625 12.820312 8.5625 13.324219 8.96875 13.855469 C 9.539062 14.582031 9.957031 15.082031 10.234375 15.355469 C 10.382812 15.507812 10.511719 15.707031 10.621094 15.957031 C 10.726562 16.207031 10.800781 16.40625 10.839844 16.5625 C 10.875 16.714844 10.933594 16.96875 11.007812 17.316406 C 11.066406 17.644531 11.117188 17.898438 11.164062 18.082031 C 11.210938 18.261719 11.289062 18.480469 11.40625 18.730469 C 11.523438 18.980469 11.664062 19.1875 11.832031 19.355469 C 11.992188 19.511719 12.179688 19.59375 12.394531 19.59375 C 12.777344 19.59375 13.121094 19.546875 13.425781 19.460938 C 13.730469 19.375 13.980469 19.265625 14.175781 19.136719 C 14.371094 19.007812 14.539062 18.839844 14.675781 18.628906 C 14.8125 18.421875 14.914062 18.234375 14.976562 18.066406 C 15.039062 17.902344 15.085938 17.691406 15.125 17.441406 C 15.164062 17.191406 15.183594 17.003906 15.1875 16.878906 C 15.191406 16.753906 15.195312 16.59375 15.195312 16.394531 C 15.195312 16.078125 15.152344 15.757812 15.070312 15.4375 C 14.984375 15.117188 14.90625 14.875 14.832031 14.707031 C 14.757812 14.539062 14.644531 14.300781 14.496094 13.996094 C 14.46875 13.945312 14.429688 13.871094 14.371094 13.769531 C 14.3125 13.667969 14.265625 13.578125 14.230469 13.496094 C 14.199219 13.410156 14.164062 13.3125 14.132812 13.195312 L 17.59375 13.195312 C 18.242188 13.195312 18.804688 12.957031 19.273438 12.480469 C 19.746094 12.007812 19.984375 11.445312 19.992188 10.796875 C 19.992188 10.0625 19.761719 9.441406 19.304688 8.933594 Z M 19.304688 8.933594 "/>
</g>
</svg>
