<?xml version="1.0" encoding="UTF-8"?>
<svg xmlns="http://www.w3.org/2000/svg" xmlns:xlink="http://www.w3.org/1999/xlink" width="20pt" height="20pt" viewBox="0 0 20 20" version="1.1">
<g id="surface1">
<path style=" stroke:none;fill-rule:nonzero;fill:rgb(0%,0%,0%);fill-opacity:1;" d="M 18.238281 11.789062 C 18.789062 11.902344 19.195312 12.230469 19.59375 12.582031 C 20.144531 11.488281 20.894531 8.816406 15.253906 8.484375 C 15.253906 8.484375 15.445312 7.128906 16.214844 5.964844 C 16.980469 4.796875 17.375 2.796875 15.828125 1.679688 C 14.277344 0.5625 14.039062 1.117188 13.890625 1.695312 C 13.808594 2.019531 13.292969 4.25 13.292969 4.25 C 13.292969 4.25 9.777344 7.890625 9.175781 8.957031 C 9.175781 8.957031 8.742188 9.585938 7.976562 9.585938 C 7.210938 9.585938 5.246094 9.585938 5.246094 9.585938 C 5.246094 9.585938 2.996094 12.359375 4.949219 16.203125 C 4.949219 16.203125 4.980469 16.378906 5.378906 16.378906 C 5.78125 16.378906 8.445312 16.378906 8.445312 16.378906 C 8.445312 16.378906 9.292969 17.328125 11.292969 18.460938 C 11.292969 18.460938 12.574219 19.042969 13.707031 18.710938 C 13.707031 18.710938 13.941406 18.910156 14.472656 18.910156 C 14.984375 18.910156 16.652344 19.226562 16.96875 17.46875 C 16.730469 17.273438 16.476562 17.128906 16.167969 17.070312 C 15.914062 17.023438 16.019531 16.640625 16.273438 16.6875 C 16.660156 16.757812 16.980469 16.957031 17.277344 17.203125 C 17.691406 17.082031 18.4375 16.710938 18.484375 15.648438 C 18.46875 15.640625 18.457031 15.632812 18.441406 15.621094 C 18.152344 15.339844 17.835938 15.113281 17.433594 15.039062 C 17.179688 14.996094 17.285156 14.609375 17.539062 14.652344 C 17.996094 14.738281 18.375 15 18.703125 15.320312 C 19.121094 15.109375 19.929688 14.488281 19.320312 13.046875 C 19.320312 13.046875 19.347656 13.007812 19.394531 12.933594 C 19.023438 12.597656 18.648438 12.277344 18.132812 12.175781 C 17.878906 12.125 17.984375 11.738281 18.238281 11.789062 Z M 18.238281 11.789062 "/>
<path style=" stroke:none;fill-rule:nonzero;fill:rgb(0%,0%,0%);fill-opacity:1;" d="M 4.496094 9.183594 L 1 9.183594 C -1.25 13.183594 1 16.777344 1 16.777344 L 4.597656 16.777344 C 1.824219 12.980469 4.496094 9.183594 4.496094 9.183594 Z M 4.496094 9.183594 "/>
</g>
</svg>
